<svg id="Icon_awesome-question" data-name="Icon awesome-question" xmlns="http://www.w3.org/2000/svg" width="10.212" height="18.608" viewBox="0 0 10.212 18.608">
  <path id="Icon_awesome-question-2" data-name="Icon awesome-question" d="M6.92,0C4.6,0,3.1,1.189,1.925,3.308A1.026,1.026,0,0,0,2.075,4.5L3.327,5.692a.606.606,0,0,0,.965-.151c.727-1.14,1.266-1.8,2.4-1.8a1.983,1.983,0,0,1,2,1.8c0,.82-.54,1.241-1.422,1.859-1.028.722-2.388,1.62-2.388,3.867v.356a.8.8,0,0,0,.7.872h2.1a.8.8,0,0,0,.7-.872v-.21c0-1.558,3.635-1.623,3.635-5.838A5.533,5.533,0,0,0,6.92,0ZM6.629,13.573a2.31,2.31,0,0,0-2.01,2.518,2.31,2.31,0,0,0,2.01,2.518,2.31,2.31,0,0,0,2.01-2.518A2.31,2.31,0,0,0,6.629,13.573Z" transform="translate(-1.8)"/>
</svg>
