<svg xmlns="http://www.w3.org/2000/svg" width="106.748" height="6.055" viewBox="0 0 106.748 6.055">
  <g id="Group_152" data-name="Group 152" transform="translate(724.72 -846.196)">
    <path id="Path_47" data-name="Path 47" d="M384.123,656.781a1.346,1.346,0,0,1,.57.278.97.97,0,0,1,.3.462,2.44,2.44,0,0,1,.086.684,5.226,5.226,0,0,1-.028.62,1.187,1.187,0,0,1-.086.364.531.531,0,0,1-.15.2,1.272,1.272,0,0,1-.222.131,1.174,1.174,0,0,1,.32.111.689.689,0,0,1,.253.239,1.3,1.3,0,0,1,.164.423,2.886,2.886,0,0,1,.061.659,3.3,3.3,0,0,1-.086.834,1.243,1.243,0,0,1-.278.556,1.113,1.113,0,0,1-.512.309,2.739,2.739,0,0,1-.784.1H378.64V656.7h4.6A3.762,3.762,0,0,1,384.123,656.781Zm-1.112,2.177a.781.781,0,0,0,.45-.111.467.467,0,0,0,.167-.417.5.5,0,0,0-.161-.417.765.765,0,0,0-.464-.122h-2.914v1.068Zm.217,2.553a.779.779,0,0,0,.52-.156.7.7,0,0,0,.184-.556.556.556,0,0,0-.195-.5,1.018,1.018,0,0,0-.556-.131h-3.092v1.343Z" transform="translate(-1103.36 189.5)" fill="#b25927"/>
    <path id="Path_48" data-name="Path 48" d="M422.542,656.7l3.106,6.023h-1.693l-.729-1.451h-3.654l-.737,1.451H417.15l3.109-6.023Zm-1.157,1.112-1.187,2.241h2.4l-1.146-2.241Z" transform="translate(-1131.162 189.497)" fill="#b25927"/>
    <path id="Path_49" data-name="Path 49" d="M466.412,656.7a2.78,2.78,0,0,1,1.685.414,1.513,1.513,0,0,1,.556,1.285H467.1a.817.817,0,0,0-.028-.234.306.306,0,0,0-.114-.156.523.523,0,0,0-.225-.086,1.92,1.92,0,0,0-.37-.028h-2.43a1.053,1.053,0,0,0-.5.108.47.47,0,0,0-.2.456.648.648,0,0,0,.05.278.369.369,0,0,0,.145.147.618.618,0,0,0,.22.058c.089,0,.184.017.278.022l2.667.106a7.176,7.176,0,0,1,.9.081,1.522,1.522,0,0,1,.642.253,1.134,1.134,0,0,1,.384.534,2.716,2.716,0,0,1,.131.945,2.865,2.865,0,0,1-.1.834,1.3,1.3,0,0,1-.342.556,1.451,1.451,0,0,1-.626.348,3.734,3.734,0,0,1-.954.106h-2.986a3.774,3.774,0,0,1-.962-.106,1.5,1.5,0,0,1-.628-.317,1.146,1.146,0,0,1-.339-.534,2.537,2.537,0,0,1-.1-.754h1.477a.42.42,0,0,0,.2.364.867.867,0,0,0,.5.139h2.414a1.612,1.612,0,0,0,.712-.122.5.5,0,0,0,.234-.487.835.835,0,0,0-.042-.278.462.462,0,0,0-.153-.2.749.749,0,0,0-.3-.125,3.036,3.036,0,0,0-.509-.061l-2.308-.095c-.412-.019-.756-.047-1.037-.089a1.753,1.753,0,0,1-.69-.228.937.937,0,0,1-.386-.495,2.72,2.72,0,0,1-.117-.89,2.323,2.323,0,0,1,.122-.812,1.19,1.19,0,0,1,.381-.542,1.615,1.615,0,0,1,.673-.3,4.655,4.655,0,0,1,.993-.089Z" transform="translate(-1163.248 189.497)" fill="#b25927"/>
    <path id="Path_50" data-name="Path 50" d="M505.454,656.7v2.116h.7l2.781-2.116h1.946l-3.5,2.655,3.337,3.367H508.9l-2.706-2.7h-.72v2.7H504V656.7Z" transform="translate(-1193.862 189.497)" fill="#b25927"/>
    <path id="Path_51" data-name="Path 51" d="M551.652,656.7v1.2h-4.727v1.112H551.5v1.207H546.93v1.3h4.727v1.207H545.49V656.7Z" transform="translate(-1223.815 189.497)" fill="#b25927"/>
    <path id="Path_52" data-name="Path 52" d="M590.5,657.923h-2.536v4.8h-1.44v-4.8H584V656.7h6.509Z" transform="translate(-1251.617 189.497)" fill="#b25927"/>
    <path id="Path_53" data-name="Path 53" d="M629.256,656.781a1.348,1.348,0,0,1,.556.278.971.971,0,0,1,.3.462,2.338,2.338,0,0,1,.086.684,6.043,6.043,0,0,1-.025.62,1.265,1.265,0,0,1-.089.364.5.5,0,0,1-.15.2,1.269,1.269,0,0,1-.222.131,1.231,1.231,0,0,1,.323.111.705.705,0,0,1,.25.239,1.3,1.3,0,0,1,.164.423,2.886,2.886,0,0,1,.061.659,3.3,3.3,0,0,1-.086.834,1.241,1.241,0,0,1-.278.556,1.112,1.112,0,0,1-.512.309,2.759,2.759,0,0,1-.787.1H623.77V656.7h4.6A3.808,3.808,0,0,1,629.256,656.781Zm-1.112,2.177a.8.8,0,0,0,.453-.111.473.473,0,0,0,.164-.417.487.487,0,0,0-.161-.417.759.759,0,0,0-.464-.122h-2.911v1.068Zm.217,2.553a.792.792,0,0,0,.523-.156.715.715,0,0,0,.181-.556.556.556,0,0,0-.195-.5,1.013,1.013,0,0,0-.556-.131h-3.089v1.343Z" transform="translate(-1280.329 189.5)" fill="#b25927"/>
    <path id="Path_54" data-name="Path 54" d="M667.686,656.7l3.106,6.023H669.1l-.731-1.451h-3.651l-.737,1.451H662.3l3.106-6.023Zm-1.154,1.112-1.19,2.241h2.405l-1.146-2.241Z" transform="translate(-1308.145 189.497)" fill="#b25927"/>
    <path id="Path_55" data-name="Path 55" d="M709.769,656.7v4.81h3.707v1.215H708.32V656.7Z" transform="translate(-1341.368 189.497)" fill="#b25927"/>
    <path id="Path_56" data-name="Path 56" d="M745.449,656.7v4.81h3.707v1.215H744V656.7Z" transform="translate(-1367.127 189.497)" fill="#b25927"/>
  </g>
</svg>
