<svg id="Icon_awesome-eye" data-name="Icon awesome-eye" xmlns="http://www.w3.org/2000/svg" width="19.838" height="13.5" viewBox="0 0 19.838 13.5">
  <path id="Icon_awesome-eye-2" data-name="Icon awesome-eye" d="M19.718,10.737A11.028,11.028,0,0,0,9.919,4.5a11.029,11.029,0,0,0-9.8,6.237,1.158,1.158,0,0,0,0,1.026A11.028,11.028,0,0,0,9.919,18a11.029,11.029,0,0,0,9.8-6.237A1.158,1.158,0,0,0,19.718,10.737Zm-9.8,5.576a5.064,5.064,0,0,1,0-10.125,5.064,5.064,0,0,1,0,10.125Zm0-8.437a3.221,3.221,0,0,0-.872.133,1.708,1.708,0,0,1-.162,2.187,1.623,1.623,0,0,1-2.142.165,3.4,3.4,0,0,0,1.346,3.678,3.244,3.244,0,0,0,3.845-.124,3.409,3.409,0,0,0,1.116-3.758,3.3,3.3,0,0,0-3.13-2.282Z" transform="translate(0 -4.5)"/>
</svg>
