<svg xmlns="http://www.w3.org/2000/svg" width="150" height="117.099" viewBox="0 0 150 117.099">
  <g id="hoops-01-01" transform="translate(-288.36 -248.5)">
    <path id="Path_10" data-name="Path 10" d="M457.274,543.559a13.647,13.647,0,0,0,2.285-10.368h0a13.111,13.111,0,0,0-9.78-10.8c-5.1-1.465-9.693-.226-13.663,3.685a13.528,13.528,0,0,1,2.625,4.491,8.861,8.861,0,1,1,4.712,13.522c-3.856-1.193-6.07-4.385-6.408-9.23a13.085,13.085,0,0,0-8.383-11.907,14.092,14.092,0,0,0-5.564-1.206,13.8,13.8,0,0,0-3.159,27.15,14.606,14.606,0,0,0,3.693.5,13.338,13.338,0,0,0,9.442-4.115,13.374,13.374,0,0,1-2.4-4.725,8.872,8.872,0,1,1,1.422-6.2c.076.528.117,1.07.158,1.593a18.866,18.866,0,0,0,.2,1.906,13.852,13.852,0,0,0,16.2,11.239,13.187,13.187,0,0,0,8.62-5.537Z" transform="translate(-88.187 -198.833)" fill="#fff"/>
    <path id="Path_11" data-name="Path 11" d="M294.125,523.32H288.36V550.1h5.765V538.577h17.958V550.1h5.725V523.32h-5.725v10.608H294.125Z" transform="translate(0 -199.975)" fill="#fff"/>
    <path id="Path_12" data-name="Path 12" d="M634.058,525.222a7.193,7.193,0,0,0-2.969-1.441h0a18.617,18.617,0,0,0-4.475-.468H608.6v26.779h5.719v-8.214h12.729a18.649,18.649,0,0,0,4.415-.447,6.348,6.348,0,0,0,2.8-1.389,5.4,5.4,0,0,0,1.509-2.492,13.781,13.781,0,0,0,.479-3.919v-1.906a12.814,12.814,0,0,0-.545-3.946A5.561,5.561,0,0,0,634.058,525.222Zm-3.54,7.694a3.177,3.177,0,0,1-.847,2.506,4.082,4.082,0,0,1-2.751.733h-12.6V529.04h12.449a4.426,4.426,0,0,1,2.881.724,3.307,3.307,0,0,1,.874,2.593Z" transform="translate(-233.025 -199.968)" fill="#fff"/>
    <path id="Path_13" data-name="Path 13" d="M754.4,545.818a12.8,12.8,0,0,0,.46-3.677,12.355,12.355,0,0,0-.572-4.189,4.747,4.747,0,0,0-1.618-2.25,6.467,6.467,0,0,0-2.762-1.089,30.563,30.563,0,0,0-4.071-.36l-12.255-.477c-.447-.025-.893-.06-1.343-.1a3.233,3.233,0,0,1-1.179-.327,2,2,0,0,1-.847-.866,3.239,3.239,0,0,1-.289-1.5,2.587,2.587,0,0,1,1.147-2.489,5.307,5.307,0,0,1,2.53-.545H744.75a9.852,9.852,0,0,1,1.776.128,2.884,2.884,0,0,1,1.223.479,1.828,1.828,0,0,1,.675.94,3.453,3.453,0,0,1,.144.765h6.264a6.356,6.356,0,0,0-2.328-5.1c-1.588-1.209-4.085-1.825-7.465-1.825H732.859a21.2,21.2,0,0,0-4.469.409,7.048,7.048,0,0,0-2.906,1.288,5.175,5.175,0,0,0-1.615,2.3,10.623,10.623,0,0,0-.545,3.576,12.073,12.073,0,0,0,.512,3.938,3.857,3.857,0,0,0,1.593,2.045,7.751,7.751,0,0,0,3,.994c1.274.182,2.865.313,4.72.389l10.605.441a15.169,15.169,0,0,1,2.41.291,3.932,3.932,0,0,1,1.569.656,2.5,2.5,0,0,1,.847,1.114,4.258,4.258,0,0,1,.226,1.454,2.692,2.692,0,0,1-1.315,2.631,7.714,7.714,0,0,1-3.475.607H732.927a4.412,4.412,0,0,1-2.568-.719,2.41,2.41,0,0,1-1.073-1.6h-5.9a10.667,10.667,0,0,0,.433,2.89,4.885,4.885,0,0,0,1.424,2.252,6.6,6.6,0,0,0,2.723,1.362,17.079,17.079,0,0,0,4.311.463h13.715a16.89,16.89,0,0,0,4.27-.463,6.194,6.194,0,0,0,2.7-1.408A5.447,5.447,0,0,0,754.4,545.818Z" transform="translate(-316.504 -199.984)" fill="#fff"/>
    <rect id="Rectangle_19" data-name="Rectangle 19" width="5.106" height="22.83" transform="translate(360.805 285.421)" fill="#fff"/>
    <path id="Path_14" data-name="Path 14" d="M498.05,248.5H455.769a11.37,11.37,0,0,0-11.359,11.357V302.14A11.37,11.37,0,0,0,455.769,313.5H498.05A11.37,11.37,0,0,0,509.41,302.14V259.857A11.37,11.37,0,0,0,498.05,248.5Zm6.111,53.651a6.119,6.119,0,0,1-6.111,6.111H455.769a6.117,6.117,0,0,1-6.111-6.111v-19.8h16.12c0,.389-.03.771-.057,1.138-.016.232-.038.463-.063.7A25.8,25.8,0,0,1,455.091,302.4l-.561.4.487.49a29.848,29.848,0,0,0,3.127,2.753l.359.272.359-.272a31.546,31.546,0,0,0,3.121-2.751,30.774,30.774,0,0,0,8.865-18.982c.022-.242.041-.487.057-.73.025-.395.044-.8.054-1.22h11.632c0,.433.03.836.054,1.217.016.245.038.49.06.73a30.617,30.617,0,0,0,1.906,8.263,31.1,31.1,0,0,0,7.073,10.834,30.454,30.454,0,0,0,3.148,2.74l.357.272.357-.272A30.731,30.731,0,0,0,498.7,303.4l.5-.5-.575-.4a25.736,25.736,0,0,1-10.722-18.32c-.025-.229-.046-.46-.063-.692-.027-.368-.046-.749-.057-1.138h16.387Zm0-24.965H488.145a25.742,25.742,0,0,1,10.485-16.613l.575-.406-.5-.5a30.718,30.718,0,0,0-3.151-2.742l-.357-.272-.357.272a30.773,30.773,0,0,0-3.156,2.737,31.122,31.122,0,0,0-7.062,10.842,30.39,30.39,0,0,0-1.727,6.667H470.669a30.747,30.747,0,0,0-8.68-17.394,31.546,31.546,0,0,0-3.121-2.751l-.359-.272-.36.272a29.256,29.256,0,0,0-3.126,2.753l-.487.49.561.4a25.812,25.812,0,0,1,10.33,16.5H449.658V259.857a6.114,6.114,0,0,1,6.111-6.109h18.587v20.63h5.106v-20.63H498.05a6.117,6.117,0,0,1,6.111,6.109Z" transform="translate(-113.551 0)" fill="#fff"/>
    <rect id="Rectangle_20" data-name="Rectangle 20" width="5.106" height="22.83" transform="translate(360.805 285.421)" fill="#fff"/>
    <path id="Path_15" data-name="Path 15" d="M498.05,248.5H455.769a11.37,11.37,0,0,0-11.359,11.357V302.14A11.37,11.37,0,0,0,455.769,313.5H498.05A11.37,11.37,0,0,0,509.41,302.14V259.857A11.37,11.37,0,0,0,498.05,248.5Zm-32.272,33.855a8.491,8.491,0,0,0-.357-5.174H449.658V259.857a6.114,6.114,0,0,1,6.111-6.109h18.587v20.63h5.106v-20.63H498.05a6.117,6.117,0,0,1,6.111,6.109v17.318h-.155v5.174h.155v19.786a6.12,6.12,0,0,1-6.111,6.111H455.769a6.117,6.117,0,0,1-6.111-6.111v-19.78" transform="translate(-113.551 0)" fill="#fff"/>
    <path id="Path_16" data-name="Path 16" d="M603.433,358.984a9.769,9.769,0,0,1,.226-5.174h16.03v5.174Z" transform="translate(-229.079 -76.63)" fill="#fff"/>
    <path id="Path_17" data-name="Path 17" d="M384.011,656.779a1.317,1.317,0,0,1,.558.272.951.951,0,0,1,.294.452,2.389,2.389,0,0,1,.084.67,5.108,5.108,0,0,1-.027.607,1.163,1.163,0,0,1-.084.357.521.521,0,0,1-.147.2,1.246,1.246,0,0,1-.218.128,1.146,1.146,0,0,1,.313.109.675.675,0,0,1,.248.234,1.273,1.273,0,0,1,.161.414,2.825,2.825,0,0,1,.06.645,3.232,3.232,0,0,1-.084.817,1.218,1.218,0,0,1-.272.545,1.091,1.091,0,0,1-.5.3,2.681,2.681,0,0,1-.768.1H378.64V656.7h4.5a3.7,3.7,0,0,1,.866.082Zm-1.089,2.132a.765.765,0,0,0,.441-.109.458.458,0,0,0,.163-.409.485.485,0,0,0-.158-.409.749.749,0,0,0-.455-.12h-2.854v1.046Zm.212,2.5a.762.762,0,0,0,.509-.153.689.689,0,0,0,.18-.545.545.545,0,0,0-.191-.493,1,1,0,0,0-.545-.128h-3.028v1.315Z" transform="translate(-65.693 -297.028)" fill="#fff"/>
    <path id="Path_18" data-name="Path 18" d="M422.431,656.7l3.042,5.9h-1.659l-.714-1.422h-3.579L418.8,662.6h-1.65l3.045-5.9Zm-1.133,1.089-1.163,2.2h2.353l-1.122-2.2Z" transform="translate(-93.715 -297.03)" fill="#fff"/>
    <path id="Path_19" data-name="Path 19" d="M466.313,656.7a2.723,2.723,0,0,1,1.65.406,1.481,1.481,0,0,1,.545,1.258h-1.522a.8.8,0,0,0-.027-.229.3.3,0,0,0-.112-.152.512.512,0,0,0-.221-.084,1.885,1.885,0,0,0-.362-.027h-2.38a1.031,1.031,0,0,0-.493.106.46.46,0,0,0-.193.447.634.634,0,0,0,.049.272.362.362,0,0,0,.142.144.608.608,0,0,0,.215.057c.087,0,.18.016.272.022l2.612.1a7.044,7.044,0,0,1,.88.079,1.489,1.489,0,0,1,.629.248,1.11,1.11,0,0,1,.376.523,2.661,2.661,0,0,1,.128.926,2.805,2.805,0,0,1-.1.817,1.274,1.274,0,0,1-.335.545,1.421,1.421,0,0,1-.613.34,3.659,3.659,0,0,1-.934.1h-2.925a3.7,3.7,0,0,1-.942-.1,1.474,1.474,0,0,1-.616-.31,1.122,1.122,0,0,1-.332-.523,2.485,2.485,0,0,1-.1-.738h1.446a.411.411,0,0,0,.193.357.85.85,0,0,0,.493.136H466.1a1.58,1.58,0,0,0,.7-.12.485.485,0,0,0,.229-.477.817.817,0,0,0-.041-.272.452.452,0,0,0-.15-.2.732.732,0,0,0-.3-.123,2.962,2.962,0,0,0-.5-.06l-2.26-.093c-.4-.019-.741-.046-1.016-.087a1.718,1.718,0,0,1-.675-.223.918.918,0,0,1-.379-.485,2.665,2.665,0,0,1-.114-.871,2.274,2.274,0,0,1,.12-.8,1.165,1.165,0,0,1,.373-.531,1.582,1.582,0,0,1,.659-.294,4.56,4.56,0,0,1,.972-.087Z" transform="translate(-126.055 -297.03)" fill="#fff"/>
    <path id="Path_20" data-name="Path 20" d="M505.424,656.7v2.073h.686l2.723-2.073h1.906l-3.426,2.6,3.268,3.3H508.8l-2.65-2.644h-.705V662.6H504v-5.9Z" transform="translate(-156.912 -297.03)" fill="#fff"/>
    <path id="Path_21" data-name="Path 21" d="M551.525,656.7v1.171H546.9v1.089h4.48v1.182H546.9v1.269h4.63v1.182h-6.04V656.7Z" transform="translate(-187.103 -297.03)" fill="#fff"/>
    <path id="Path_22" data-name="Path 22" d="M590.37,657.9h-2.484v4.7h-1.411v-4.7H584v-1.2h6.375Z" transform="translate(-215.125 -297.03)" fill="#fff"/>
    <path id="Path_23" data-name="Path 23" d="M629.143,656.779a1.321,1.321,0,0,1,.545.272.951.951,0,0,1,.294.452,2.291,2.291,0,0,1,.084.67,5.915,5.915,0,0,1-.025.607,1.237,1.237,0,0,1-.087.357.493.493,0,0,1-.147.2,1.25,1.25,0,0,1-.218.128,1.2,1.2,0,0,1,.316.109.692.692,0,0,1,.245.234,1.276,1.276,0,0,1,.161.414,2.82,2.82,0,0,1,.06.645,3.229,3.229,0,0,1-.084.817,1.215,1.215,0,0,1-.272.545,1.089,1.089,0,0,1-.5.3,2.7,2.7,0,0,1-.771.1H623.77V656.7h4.5a3.736,3.736,0,0,1,.869.082Zm-1.089,2.132a.781.781,0,0,0,.444-.109.463.463,0,0,0,.161-.408.476.476,0,0,0-.158-.409.743.743,0,0,0-.455-.12h-2.851v1.046Zm.212,2.5a.777.777,0,0,0,.512-.153.7.7,0,0,0,.177-.545.545.545,0,0,0-.191-.493.993.993,0,0,0-.545-.128h-3.026v1.315Z" transform="translate(-244.064 -297.028)" fill="#fff"/>
    <path id="Path_24" data-name="Path 24" d="M667.575,656.7l3.042,5.9h-1.656l-.716-1.422h-3.576l-.722,1.422H662.3l3.042-5.9Zm-1.13,1.089-1.166,2.2h2.356l-1.122-2.2Z" transform="translate(-272.101 -297.03)" fill="#fff"/>
    <path id="Path_25" data-name="Path 25" d="M709.739,656.7v4.711h3.63v1.19H708.32v-5.9Z" transform="translate(-305.588 -297.03)" fill="#fff"/>
    <path id="Path_26" data-name="Path 26" d="M745.419,656.7v4.711h3.63v1.19H744v-5.9Z" transform="translate(-331.551 -297.03)" fill="#fff"/>
  </g>
</svg>
