<svg xmlns="http://www.w3.org/2000/svg" width="150" height="27.645" viewBox="0 0 150 27.645">
  <g id="Group_16" data-name="Group 16" transform="translate(-105 -206.417)">
    <path id="Path_10" data-name="Path 10" d="M457.274,543.559a13.647,13.647,0,0,0,2.285-10.368h0a13.111,13.111,0,0,0-9.78-10.8c-5.1-1.465-9.693-.226-13.663,3.685a13.528,13.528,0,0,1,2.625,4.491,8.861,8.861,0,1,1,4.712,13.522c-3.856-1.193-6.07-4.385-6.408-9.23a13.085,13.085,0,0,0-8.383-11.907,14.092,14.092,0,0,0-5.564-1.206,13.8,13.8,0,0,0-3.159,27.15,14.606,14.606,0,0,0,3.693.5,13.338,13.338,0,0,0,9.442-4.115,13.374,13.374,0,0,1-2.4-4.725,8.872,8.872,0,1,1,1.422-6.2c.076.528.117,1.07.158,1.593a18.866,18.866,0,0,0,.2,1.906,13.852,13.852,0,0,0,16.2,11.239,13.187,13.187,0,0,0,8.62-5.537Z" transform="translate(-271.547 -315.333)" fill="#b25927"/>
    <path id="Path_11" data-name="Path 11" d="M294.125,523.32H288.36V550.1h5.765V538.577h17.958V550.1h5.725V523.32h-5.725v10.608H294.125Z" transform="translate(-183.36 -316.475)" fill="#1a1a1a"/>
    <path id="Path_12" data-name="Path 12" d="M634.058,525.222a7.193,7.193,0,0,0-2.969-1.441h0a18.617,18.617,0,0,0-4.475-.468H608.6v26.779h5.719v-8.214h12.729a18.649,18.649,0,0,0,4.415-.447,6.348,6.348,0,0,0,2.8-1.389,5.4,5.4,0,0,0,1.509-2.492,13.781,13.781,0,0,0,.479-3.919v-1.906a12.814,12.814,0,0,0-.545-3.946A5.561,5.561,0,0,0,634.058,525.222Zm-3.54,7.694a3.177,3.177,0,0,1-.847,2.506,4.082,4.082,0,0,1-2.751.733h-12.6V529.04h12.449a4.426,4.426,0,0,1,2.881.724,3.307,3.307,0,0,1,.874,2.593Z" transform="translate(-416.385 -316.468)" fill="#1a1a1a"/>
    <path id="Path_13" data-name="Path 13" d="M754.4,545.818a12.8,12.8,0,0,0,.46-3.677,12.355,12.355,0,0,0-.572-4.189,4.747,4.747,0,0,0-1.618-2.25,6.467,6.467,0,0,0-2.762-1.089,30.563,30.563,0,0,0-4.071-.36l-12.255-.477c-.447-.025-.893-.06-1.343-.1a3.233,3.233,0,0,1-1.179-.327,2,2,0,0,1-.847-.866,3.239,3.239,0,0,1-.289-1.5,2.587,2.587,0,0,1,1.147-2.489,5.307,5.307,0,0,1,2.53-.545H744.75a9.852,9.852,0,0,1,1.776.128,2.884,2.884,0,0,1,1.223.479,1.828,1.828,0,0,1,.675.94,3.453,3.453,0,0,1,.144.765h6.264a6.356,6.356,0,0,0-2.328-5.1c-1.588-1.209-4.085-1.825-7.465-1.825H732.859a21.2,21.2,0,0,0-4.469.409,7.048,7.048,0,0,0-2.906,1.288,5.175,5.175,0,0,0-1.615,2.3,10.623,10.623,0,0,0-.545,3.576,12.073,12.073,0,0,0,.512,3.938,3.857,3.857,0,0,0,1.593,2.045,7.751,7.751,0,0,0,3,.994c1.274.182,2.865.313,4.72.389l10.605.441a15.169,15.169,0,0,1,2.41.291,3.932,3.932,0,0,1,1.569.656,2.5,2.5,0,0,1,.847,1.114,4.258,4.258,0,0,1,.226,1.454,2.692,2.692,0,0,1-1.315,2.631,7.714,7.714,0,0,1-3.475.607H732.927a4.412,4.412,0,0,1-2.568-.719,2.41,2.41,0,0,1-1.073-1.6h-5.9a10.667,10.667,0,0,0,.433,2.89,4.885,4.885,0,0,0,1.424,2.252,6.6,6.6,0,0,0,2.723,1.362,17.079,17.079,0,0,0,4.311.463h13.715a16.89,16.89,0,0,0,4.27-.463,6.194,6.194,0,0,0,2.7-1.408A5.447,5.447,0,0,0,754.4,545.818Z" transform="translate(-499.864 -316.484)" fill="#1a1a1a"/>
  </g>
</svg>
