<svg xmlns="http://www.w3.org/2000/svg" width="16.998" height="17.438" viewBox="0 0 16.998 17.438">
  <path id="Icon_awesome-info-circle" data-name="Icon awesome-info-circle" d="M9.061.563a8.612,8.612,0,0,0-8.5,8.719A8.61,8.61,0,0,0,9.061,18a8.61,8.61,0,0,0,8.5-8.719A8.612,8.612,0,0,0,9.061.563Zm0,3.867A1.477,1.477,0,1,1,7.622,5.906,1.458,1.458,0,0,1,9.061,4.43Zm1.919,8.93a.417.417,0,0,1-.411.422H7.554a.417.417,0,0,1-.411-.422v-.844a.417.417,0,0,1,.411-.422h.411V9.844H7.554a.417.417,0,0,1-.411-.422V8.578a.417.417,0,0,1,.411-.422H9.747a.417.417,0,0,1,.411.422v3.516h.411a.417.417,0,0,1,.411.422Z" transform="translate(-0.563 -0.563)"/>
</svg>
