<svg xmlns="http://www.w3.org/2000/svg" width="22.895" height="22.747" viewBox="0 0 22.895 22.747">
  <path id="Icon_material-my-location" data-name="Icon material-my-location" d="M12.948,8.738a4.136,4.136,0,1,0,4.163,4.136A4.148,4.148,0,0,0,12.948,8.738Zm9.3,3.1a9.33,9.33,0,0,0-8.263-8.21V1.5H11.907V3.63a9.33,9.33,0,0,0-8.263,8.21H1.5v2.068H3.644a9.33,9.33,0,0,0,8.263,8.21v2.13h2.081v-2.13a9.33,9.33,0,0,0,8.263-8.21H24.4V11.839Zm-9.3,8.272a7.238,7.238,0,1,1,7.285-7.238A7.256,7.256,0,0,1,12.948,20.111Z" transform="translate(-1.5 -1.5)" fill="#b25927"/>
</svg>
