<svg xmlns="http://www.w3.org/2000/svg" width="20.668" height="25.043" viewBox="0 0 20.668 25.043">
  <g id="Icon_ionic-ios-notifications" data-name="Icon ionic-ios-notifications" transform="translate(-6.761 -3.93)">
    <path id="Path_67" data-name="Path 67" d="M17.993,32.063c2.187,0,3.382-1.547,3.382-3.727H14.6C14.6,30.516,15.8,32.063,17.993,32.063Z" transform="translate(-0.91 -3.09)" fill="#b25927"/>
    <path id="Path_68" data-name="Path 68" d="M27.167,21.974c-.995-1.236-2.953-1.961-2.953-7.5,0-5.682-2.662-7.965-5.143-8.513-.233-.055-.4-.128-.4-.359V5.428a1.578,1.578,0,0,0-3.153,0v.177c0,.225-.168.3-.4.359C12.63,6.519,9.975,8.8,9.975,14.478c0,5.535-1.958,6.254-2.953,7.5A1.206,1.206,0,0,0,8.049,23.91h18.1A1.205,1.205,0,0,0,27.167,21.974Z" transform="translate(0)" fill="#b25927"/>
  </g>
</svg>
