<svg xmlns="http://www.w3.org/2000/svg" width="19.846" height="20.439" viewBox="0 0 19.846 20.439">
  <path id="Icon_ionic-ios-settings" data-name="Icon ionic-ios-settings" d="M22.708,14.717a2.628,2.628,0,0,1,1.638-2.453,10.594,10.594,0,0,0-1.225-3.038,2.495,2.495,0,0,1-2.843-.537,2.689,2.689,0,0,1-.527-2.927A9.935,9.935,0,0,0,16.805,4.5a2.526,2.526,0,0,1-4.765,0A9.965,9.965,0,0,0,9.089,5.761a2.681,2.681,0,0,1-.527,2.927,2.51,2.51,0,0,1-1.8.766A2.443,2.443,0,0,1,5.72,9.225,10.83,10.83,0,0,0,4.5,12.269a2.657,2.657,0,0,1,.005,4.906A10.594,10.594,0,0,0,5.73,20.214a2.5,2.5,0,0,1,2.837.543,2.69,2.69,0,0,1,.527,2.921,10.023,10.023,0,0,0,2.951,1.261,2.521,2.521,0,0,1,4.755,0,9.965,9.965,0,0,0,2.951-1.261,2.692,2.692,0,0,1,.527-2.921,2.5,2.5,0,0,1,2.837-.543,10.656,10.656,0,0,0,1.225-3.038A2.641,2.641,0,0,1,22.708,14.717Zm-8.238,4.252A4.259,4.259,0,1,1,18.6,14.712,4.2,4.2,0,0,1,14.469,18.969Z" transform="translate(-4.5 -4.5)"/>
</svg>
