<svg xmlns="http://www.w3.org/2000/svg" width="15.684" height="18.396" viewBox="0 0 15.684 18.396">
  <path id="Icon_ionic-md-share" data-name="Icon ionic-md-share" d="M17.563,16.129a2.306,2.306,0,0,0-1.7.693L9.611,12.986a3.29,3.29,0,0,0,.087-.647,3.288,3.288,0,0,0-.087-.647l6.16-3.79a2.547,2.547,0,0,0,1.791.739,2.709,2.709,0,0,0,2.621-2.773,2.625,2.625,0,1,0-5.243,0,3.27,3.27,0,0,0,.087.647L8.869,10.3a2.547,2.547,0,0,0-1.791-.739A2.673,2.673,0,0,0,4.5,12.338a2.708,2.708,0,0,0,2.621,2.773,2.547,2.547,0,0,0,1.791-.739l6.2,3.836a2.452,2.452,0,0,0-.087.6,2.538,2.538,0,1,0,2.534-2.681Z" transform="translate(-4.5 -3.094)"/>
</svg>
